<?xml version="1.0" encoding="iso-8859-1"?>
<!-- Generator: Adobe Illustrator 19.0.0, SVG Export Plug-In . SVG Version: 6.00 Build 0)  -->
<svg version="1.1" id="Layer_1" xmlns="http://www.w3.org/2000/svg" xmlns:xlink="http://www.w3.org/1999/xlink" x="0px" y="0px"
	 viewBox="0 0 511.999 511.999" style="enable-background:new 0 0 511.999 511.999;" xml:space="preserve">
<g>
	<g>
		<path d="M126.034,78.501C113.726,74.18,100.13,79.81,94.483,91.57c-0.527,1.096-8.65,18.205-16.42,44.447
			c8.08,1.463,16.48,3.248,25.088,5.432c8.048,2.041,16.274,4.447,24.571,7.236c3.515,1.181,7.038,2.432,10.57,3.761
			c1.544-3.394,3.142-6.731,4.775-10.011c3.899-7.833,8.028-15.323,12.268-22.45c4.545-7.637,9.215-14.852,13.879-21.591
			C145.094,85.281,127.183,78.904,126.034,78.501z"/>
	</g>
</g>
<g>
	<g>
		<path d="M417.517,91.566c-5.649-11.76-19.24-17.391-31.551-13.069c-1.147,0.403-18.994,6.756-43.048,19.82
			c0.783,1.13,1.567,2.27,2.348,3.425c4.096,6.046,7.941,12.098,11.56,18.156c4.466,7.48,8.569,14.97,12.304,22.463
			c1.666,3.335,3.254,6.671,4.773,10.007c3.468-1.302,6.927-2.526,10.376-3.686c8.295-2.79,16.523-5.195,24.567-7.237
			c8.609-2.184,17.009-3.969,25.09-5.432C426.168,109.772,418.043,92.662,417.517,91.566z"/>
	</g>
</g>
<g>
	<g>
		<path d="M114.363,256.001c-0.003-19.176,2.573-37.66,6.923-55.21c-1.604-0.609-3.212-1.196-4.814-1.768
			c-17.12-6.109-34.097-10.174-49.529-12.878c-26.112-4.575-47.763-5.249-57.966-5.249c-5.338,0-8.458,0.162-8.796,0.181
			c-0.063,1.306-1.667,32.455,5.992,72.283c6.693,34.797,22.182,83.788,57.97,119.576c33.839,33.839,79.325,49.927,117.402,57.514
			C151.016,390.918,114.363,328.387,114.363,256.001z"/>
	</g>
</g>
<g>
	<g>
		<path d="M511.813,181.075c-0.329-0.017-3.449-0.179-8.787-0.179c-10.203,0-31.856,0.674-57.966,5.253
			c-15.431,2.705-32.407,6.775-49.526,12.89c-1.563,0.558-3.13,1.133-4.695,1.725c4.519,18.477,6.801,36.913,6.801,55.241
			c0,72.387-36.655,134.918-67.182,174.448c38.076-7.587,83.565-23.677,117.404-57.516c35.788-35.788,51.277-84.78,57.97-119.574
			C513.487,213.53,511.884,182.38,511.813,181.075z"/>
	</g>
</g>
<g>
	<g>
		<path d="M337.004,198.954c-2.727-8.47-5.906-16.601-9.359-24.32c-0.695-1.555-1.396-3.096-2.113-4.616
			c-7.109-15.098-15.151-28.487-22.649-39.56c-1.063-1.57-2.126-3.101-3.188-4.615c-21.677-30.868-42.764-49.898-43.694-50.731
			c-0.44,0.394-21.745,19.734-43.563,50.824c-9.026,12.862-18.139,27.738-25.902,44.114c-0.722,1.524-1.432,3.06-2.13,4.609
			c-3.51,7.795-6.693,15.912-9.403,24.293c-5.807,17.963-9.444,37.148-9.444,57.047c0,14.41,1.916,28.445,5.174,41.916
			c5.787,23.924,15.83,46.06,27.052,65.308c25.764,44.198,57.68,73.178,58.215,73.66l0.002,0.002c0.01,0,0.017-0.002,0.017-0.002
			c0.529-0.481,32.44-29.462,58.202-73.661c11.217-19.245,21.258-41.379,27.047-65.298c3.258-13.471,5.174-27.509,5.174-41.923
			C346.443,235.966,342.721,216.721,337.004,198.954z"/>
	</g>
</g>
<g>
</g>
<g>
</g>
<g>
</g>
<g>
</g>
<g>
</g>
<g>
</g>
<g>
</g>
<g>
</g>
<g>
</g>
<g>
</g>
<g>
</g>
<g>
</g>
<g>
</g>
<g>
</g>
<g>
</g>
</svg>
